# xmcd CD database file generated by OrangeCD 4.3
#
# Track frame offsets:
#	150
#	12740
#	23825
#	34497
#	47070
#	59092
#	69585
#	82130
#	93587
#	103447
#	114262
#	127445
#	137732
#	147167
#	159657
#	170685
#	181615
#	194862
#	205807
#	217107
#	227107
#	238315
#	251830
#	262872
#	274420
#	283815
#	294535
#	306535
#
# Disc length: 4234 seconds
#
# Revision: 0
# Processed by: cddbd v1.4PL0 Copyright (c) Steve Scherf et al.
# Submitted via: OrangeCD 4.3
#
DISCID=d710881c
DTITLE=Royals - Every Beat Of My Heart
DYEAR=1997
DGENRE=Blues
TTITLE0=Moonrise
TTITLE1=Fifth St. Blues
TTITLE2=Untill I Die
TTITLE3=Work With Me Annie
TTITLE4=Annie Had A Baby
TTITLE5=She's The One
TTITLE6=Starting From Tonight
TTITLE7=I Know I Love You So
TTITLE8=Get It
TTITLE9=No, It Ain't
TTITLE10=Every Beat Of My Heart
TTITLE11=All Night Long
TTITLE12=Tell Them
TTITLE13=Rock, Granny, Roll
TTITLE14=Shrine Of St. Cecelia
TTITLE15=I Feel So Blue
TTITLE16=A Love In My Heart
TTITLE17=I'll Never Let Her Go
TTITLE18=Hello Miss Fine
TTITLE19=I Feel That-A-Way
TTITLE20=My Heart Will Always Know
TTITLE21=Partners For Life
TTITLE22=That's It
TTITLE23=Someone Like You
TTITLE24=Are You Forgetting
TTITLE25=What Did I Do
TTITLE26=Rock And Roll Wedding
TTITLE27=Why Are We Apart
EXTD=
EXTT0=
EXTT1=
EXTT2=
EXTT3=
EXTT4=
EXTT5=
EXTT6=
EXTT7=
EXTT8=
EXTT9=
EXTT10=
EXTT11=
EXTT12=
EXTT13=
EXTT14=
EXTT15=
EXTT16=
EXTT17=
EXTT18=
EXTT19=
EXTT20=
EXTT21=
EXTT22=
EXTT23=
EXTT24=
EXTT25=
EXTT26=
EXTT27=
PLAYORDER=
